<?xml version="1.0" encoding="utf-8"?>
<!-- Generator: Adobe Illustrator 24.1.2, SVG Export Plug-In . SVG Version: 6.00 Build 0)  -->
<svg version="1.1" id="Laag_1" xmlns="http://www.w3.org/2000/svg" xmlns:xlink="http://www.w3.org/1999/xlink" x="0px" y="0px"
	 viewBox="0 0 500 500" style="enable-background:new 0 0 500 500;" xml:space="preserve">
<style type="text/css">
	.st0{fill:#0072A5;}
	.st1{fill:#FFFFFF;}
	.st2{fill:#3ED3C7;}
</style>
<g>
	<path class="st0" d="M140.95,144.03c-2.74,0-5.29-0.5-7.67-1.51c-2.38-1.01-4.46-2.4-6.26-4.19c-1.8-1.78-3.21-3.84-4.24-6.18
		c-1.03-2.34-1.54-4.86-1.54-7.56c0-2.7,0.51-5.22,1.54-7.56c1.03-2.34,2.44-4.4,4.24-6.18c1.8-1.78,3.89-3.18,6.26-4.19
		c2.38-1.01,4.93-1.51,7.67-1.51c1.69,0,3.33,0.18,4.91,0.54c1.58,0.36,3.04,0.9,4.37,1.62c0.54,0.29,0.94,0.68,1.21,1.16
		s0.4,0.98,0.4,1.48c0,0.86-0.29,1.64-0.86,2.32c-0.58,0.68-1.31,1.03-2.21,1.03c-0.29,0-0.59-0.04-0.89-0.11
		c-0.31-0.07-0.6-0.18-0.89-0.32c-0.9-0.4-1.85-0.7-2.86-0.92c-1.01-0.22-2.07-0.32-3.19-0.32c-2.34,0-4.47,0.59-6.4,1.75
		c-1.93,1.17-3.46,2.74-4.59,4.7c-1.13,1.96-1.7,4.13-1.7,6.51c0,2.34,0.57,4.5,1.7,6.48c1.13,1.98,2.66,3.56,4.59,4.73
		c1.93,1.17,4.06,1.75,6.4,1.75c1.08,0,2.27-0.11,3.56-0.32c1.3-0.22,2.36-0.5,3.19-0.86l-0.49,1.62v-9.23l0.92,0.81h-5.99
		c-0.94,0-1.72-0.31-2.35-0.92c-0.63-0.61-0.94-1.39-0.94-2.32c0-0.94,0.31-1.71,0.94-2.32c0.63-0.61,1.41-0.92,2.35-0.92H151
		c0.94,0,1.71,0.32,2.32,0.95c0.61,0.63,0.92,1.41,0.92,2.35v11.45c0,0.72-0.17,1.31-0.51,1.78c-0.34,0.47-0.73,0.85-1.16,1.13
		c-1.66,1.01-3.47,1.81-5.43,2.4C145.17,143.73,143.11,144.03,140.95,144.03z"/>
	<path class="st0" d="M163.42,143.49c-0.94,0-1.71-0.31-2.32-0.94c-0.61-0.63-0.92-1.41-0.92-2.35v-22.3c0-0.94,0.31-1.72,0.92-2.35
		c0.61-0.63,1.39-0.95,2.32-0.95c0.94,0,1.71,0.32,2.32,0.95c0.61,0.63,0.92,1.41,0.92,2.35v5.08l-0.38-3.62
		c0.4-0.86,0.91-1.63,1.54-2.29c0.63-0.67,1.34-1.22,2.13-1.67c0.79-0.45,1.64-0.78,2.54-1s1.8-0.32,2.7-0.32
		c1.08,0,1.99,0.31,2.73,0.92c0.74,0.61,1.11,1.33,1.11,2.16c0,1.19-0.31,2.04-0.92,2.56c-0.61,0.52-1.28,0.78-2,0.78
		c-0.68,0-1.31-0.13-1.86-0.38c-0.56-0.25-1.2-0.38-1.92-0.38c-0.65,0-1.31,0.15-1.97,0.46c-0.67,0.31-1.28,0.78-1.84,1.43
		c-0.56,0.65-1.01,1.45-1.35,2.4c-0.34,0.95-0.51,2.08-0.51,3.38v12.8c0,0.94-0.31,1.72-0.92,2.35
		C165.13,143.17,164.35,143.49,163.42,143.49z"/>
	<path class="st0" d="M195.76,144.03c-3.06,0-5.72-0.64-7.97-1.92c-2.25-1.28-3.98-3.01-5.18-5.21c-1.21-2.2-1.81-4.68-1.81-7.45
		c0-3.24,0.66-6,1.97-8.29c1.31-2.29,3.03-4.04,5.16-5.27c2.12-1.22,4.37-1.84,6.75-1.84c1.84,0,3.57,0.38,5.21,1.13
		c1.64,0.76,3.09,1.79,4.35,3.1c1.26,1.31,2.26,2.83,3,4.56s1.11,3.56,1.11,5.51c-0.04,0.86-0.38,1.57-1.03,2.11
		c-0.65,0.54-1.4,0.81-2.27,0.81h-20.63l-1.62-5.4h19.82l-1.19,1.08v-1.46c-0.07-1.04-0.44-1.98-1.11-2.81
		c-0.67-0.83-1.49-1.48-2.48-1.97c-0.99-0.49-2.04-0.73-3.16-0.73c-1.08,0-2.09,0.14-3.02,0.43c-0.94,0.29-1.75,0.77-2.43,1.46
		c-0.68,0.68-1.22,1.6-1.62,2.75c-0.4,1.15-0.59,2.61-0.59,4.37c0,1.94,0.4,3.59,1.21,4.94c0.81,1.35,1.85,2.38,3.13,3.08
		c1.28,0.7,2.64,1.05,4.08,1.05c1.33,0,2.39-0.11,3.19-0.32c0.79-0.22,1.43-0.48,1.92-0.78c0.49-0.31,0.93-0.57,1.32-0.78
		c0.65-0.32,1.26-0.49,1.84-0.49c0.79,0,1.45,0.27,1.97,0.81s0.78,1.17,0.78,1.89c0,0.97-0.5,1.85-1.51,2.65
		c-0.94,0.79-2.25,1.49-3.94,2.08C199.31,143.73,197.56,144.03,195.76,144.03z"/>
	<path class="st0" d="M227.08,144.03c-3.06,0-5.71-0.64-7.96-1.92c-2.25-1.28-3.98-3.01-5.18-5.21c-1.21-2.2-1.81-4.68-1.81-7.45
		c0-3.24,0.66-6,1.97-8.29c1.31-2.29,3.03-4.04,5.16-5.27c2.12-1.22,4.37-1.84,6.75-1.84c1.84,0,3.57,0.38,5.21,1.13
		c1.64,0.76,3.09,1.79,4.35,3.1c1.26,1.31,2.26,2.83,3,4.56c0.74,1.73,1.11,3.56,1.11,5.51c-0.04,0.86-0.38,1.57-1.03,2.11
		c-0.65,0.54-1.4,0.81-2.27,0.81h-20.63l-1.62-5.4h19.82l-1.19,1.08v-1.46c-0.07-1.04-0.44-1.98-1.11-2.81
		c-0.67-0.83-1.49-1.48-2.48-1.97c-0.99-0.49-2.04-0.73-3.16-0.73c-1.08,0-2.09,0.14-3.02,0.43c-0.94,0.29-1.75,0.77-2.43,1.46
		c-0.68,0.68-1.22,1.6-1.62,2.75c-0.4,1.15-0.59,2.61-0.59,4.37c0,1.94,0.41,3.59,1.22,4.94c0.81,1.35,1.85,2.38,3.13,3.08
		c1.28,0.7,2.64,1.05,4.08,1.05c1.33,0,2.39-0.11,3.19-0.32c0.79-0.22,1.43-0.48,1.92-0.78c0.49-0.31,0.93-0.57,1.32-0.78
		c0.65-0.32,1.26-0.49,1.84-0.49c0.79,0,1.45,0.27,1.97,0.81c0.52,0.54,0.78,1.17,0.78,1.89c0,0.97-0.5,1.85-1.51,2.65
		c-0.94,0.79-2.25,1.49-3.94,2.08C230.63,143.73,228.88,144.03,227.08,144.03z"/>
	<path class="st0" d="M260.51,114.06c2.66,0,4.69,0.56,6.08,1.67c1.38,1.12,2.34,2.6,2.86,4.46c0.52,1.85,0.78,3.91,0.78,6.18v13.82
		c0,0.94-0.31,1.72-0.92,2.35c-0.61,0.63-1.39,0.94-2.32,0.94s-1.71-0.31-2.32-0.94c-0.61-0.63-0.92-1.41-0.92-2.35v-13.82
		c0-1.19-0.15-2.26-0.46-3.21c-0.31-0.95-0.86-1.72-1.65-2.29c-0.79-0.58-1.93-0.86-3.4-0.86c-1.44,0-2.66,0.29-3.64,0.86
		c-0.99,0.58-1.75,1.34-2.27,2.29c-0.52,0.95-0.78,2.02-0.78,3.21v13.82c0,0.94-0.31,1.72-0.92,2.35c-0.61,0.63-1.39,0.94-2.32,0.94
		c-0.94,0-1.71-0.31-2.32-0.94c-0.61-0.63-0.92-1.41-0.92-2.35v-22.3c0-0.94,0.31-1.72,0.92-2.35c0.61-0.63,1.39-0.95,2.32-0.95
		c0.94,0,1.71,0.32,2.32,0.95c0.61,0.63,0.92,1.41,0.92,2.35v2.32l-0.81-0.16c0.32-0.61,0.79-1.27,1.4-1.97
		c0.61-0.7,1.33-1.36,2.16-1.97c0.83-0.61,1.76-1.11,2.81-1.48C258.15,114.25,259.28,114.06,260.51,114.06z"/>
	<path class="st0" d="M293.39,98.69c1.87,0,3.63,0.54,5.26,1.62c1.64,1.08,2.96,2.54,3.97,4.37s1.51,3.89,1.51,6.16
		c0,2.23-0.5,4.27-1.51,6.1s-2.33,3.3-3.97,4.4c-1.64,1.1-3.39,1.65-5.26,1.65h-9.94l0.54-0.97v11.18c0,0.94-0.29,1.72-0.86,2.35
		c-0.58,0.63-1.33,0.94-2.27,0.94c-0.9,0-1.64-0.31-2.21-0.94c-0.58-0.63-0.86-1.41-0.86-2.35v-31.21c0-0.94,0.31-1.72,0.95-2.35
		c0.63-0.63,1.41-0.94,2.35-0.94H293.39z M293.39,116.83c0.68,0,1.35-0.29,2-0.86c0.65-0.58,1.19-1.32,1.62-2.24
		c0.43-0.92,0.65-1.88,0.65-2.89c0-1.04-0.22-2.02-0.65-2.92c-0.43-0.9-0.97-1.63-1.62-2.19c-0.65-0.56-1.31-0.84-2-0.84h-10.04
		l0.65-0.97v13.77l-0.59-0.86H293.39z"/>
	<path class="st0" d="M337.02,122.07c0,2.95-0.66,5.55-1.97,7.8c-1.31,2.25-3.08,4.01-5.29,5.27c-2.21,1.26-4.69,1.89-7.42,1.89
		c-2.74,0-5.21-0.63-7.42-1.89c-2.21-1.26-3.98-3.01-5.29-5.27c-1.31-2.25-1.97-4.85-1.97-7.8c0-2.95,0.66-5.55,1.97-7.8
		c1.31-2.25,3.08-4.01,5.29-5.29c2.21-1.28,4.69-1.92,7.42-1.92c2.74,0,5.21,0.64,7.42,1.92c2.21,1.28,3.98,3.04,5.29,5.29
		C336.37,116.52,337.02,119.12,337.02,122.07z M330.54,122.07c0-1.84-0.37-3.43-1.11-4.78c-0.74-1.35-1.73-2.4-2.97-3.16
		s-2.62-1.13-4.13-1.13s-2.89,0.38-4.13,1.13s-2.23,1.81-2.97,3.16c-0.74,1.35-1.11,2.94-1.11,4.78c0,1.8,0.37,3.38,1.11,4.73
		s1.73,2.4,2.97,3.16c1.24,0.76,2.62,1.13,4.13,1.13s2.89-0.38,4.13-1.13c1.24-0.76,2.23-1.81,2.97-3.16
		C330.17,125.44,330.54,123.87,330.54,122.07z"/>
	<path class="st0" d="M370.18,122.07c0,2.95-0.66,5.55-1.97,7.8c-1.31,2.25-3.08,4.01-5.29,5.27c-2.21,1.26-4.69,1.89-7.42,1.89
		c-2.74,0-5.21-0.63-7.42-1.89c-2.21-1.26-3.98-3.01-5.29-5.27c-1.31-2.25-1.97-4.85-1.97-7.8c0-2.95,0.66-5.55,1.97-7.8
		c1.31-2.25,3.08-4.01,5.29-5.29c2.21-1.28,4.69-1.92,7.42-1.92c2.74,0,5.21,0.64,7.42,1.92c2.21,1.28,3.98,3.04,5.29,5.29
		C369.52,116.52,370.18,119.12,370.18,122.07z M363.7,122.07c0-1.84-0.37-3.43-1.11-4.78c-0.74-1.35-1.73-2.4-2.97-3.16
		S357,113,355.49,113s-2.89,0.38-4.13,1.13s-2.23,1.81-2.97,3.16c-0.74,1.35-1.11,2.94-1.11,4.78c0,1.8,0.37,3.38,1.11,4.73
		s1.73,2.4,2.97,3.16c1.24,0.76,2.62,1.13,4.13,1.13s2.89-0.38,4.13-1.13c1.24-0.76,2.23-1.81,2.97-3.16
		C363.33,125.44,363.7,123.87,363.7,122.07z"/>
	<path class="st0" d="M382.6,133.19c0,0.94-0.32,1.72-0.95,2.35c-0.63,0.63-1.41,0.94-2.35,0.94c-0.9,0-1.66-0.31-2.27-0.94
		c-0.61-0.63-0.92-1.41-0.92-2.35V99.82c0-0.94,0.31-1.72,0.95-2.35c0.63-0.63,1.41-0.94,2.35-0.94c0.94,0,1.7,0.32,2.29,0.94
		c0.59,0.63,0.89,1.41,0.89,2.35V133.19z"/>
	<path class="st0" d="M388.49,132c-0.36-0.5-0.52-1.15-0.49-1.94c0.04-0.79,0.5-1.48,1.4-2.05c0.58-0.36,1.19-0.51,1.84-0.46
		c0.65,0.05,1.28,0.39,1.89,1c1.04,1.04,2.14,1.85,3.29,2.43c1.15,0.58,2.59,0.86,4.32,0.86c0.54-0.04,1.13-0.12,1.78-0.24
		c0.65-0.13,1.21-0.41,1.7-0.86c0.49-0.45,0.73-1.14,0.73-2.08c0-0.79-0.27-1.42-0.81-1.89c-0.54-0.47-1.25-0.86-2.13-1.19
		c-0.88-0.32-1.86-0.63-2.94-0.92c-1.12-0.32-2.26-0.68-3.43-1.08c-1.17-0.4-2.24-0.91-3.21-1.54c-0.97-0.63-1.76-1.47-2.38-2.51
		c-0.61-1.04-0.92-2.36-0.92-3.94c0-1.8,0.5-3.33,1.51-4.59c1.01-1.26,2.31-2.23,3.92-2.92c1.6-0.68,3.28-1.03,5.05-1.03
		c1.12,0,2.29,0.14,3.51,0.41s2.39,0.7,3.51,1.3c1.12,0.59,2.05,1.38,2.81,2.35c0.4,0.54,0.63,1.19,0.7,1.94
		c0.07,0.76-0.27,1.44-1.03,2.05c-0.54,0.43-1.17,0.62-1.89,0.57c-0.72-0.05-1.31-0.3-1.78-0.73c-0.61-0.79-1.43-1.42-2.46-1.89
		c-1.03-0.47-2.21-0.7-3.54-0.7c-0.54,0-1.12,0.06-1.75,0.19c-0.63,0.13-1.18,0.4-1.65,0.81c-0.47,0.41-0.7,1.07-0.7,1.97
		c0,0.83,0.27,1.48,0.81,1.97c0.54,0.49,1.27,0.88,2.19,1.19c0.92,0.31,1.9,0.6,2.94,0.89c1.08,0.29,2.18,0.63,3.29,1.03
		c1.12,0.4,2.14,0.92,3.08,1.57c0.94,0.65,1.69,1.48,2.27,2.51c0.58,1.03,0.86,2.33,0.86,3.92c0,1.84-0.54,3.4-1.62,4.7
		c-1.08,1.3-2.43,2.28-4.05,2.94s-3.28,1-4.97,1c-2.12,0-4.25-0.37-6.37-1.11S389.89,133.88,388.49,132z"/>
</g>
<g>
	<path class="st1" d="M412.83,154.67c-98.31-36.29-195.45,36.29-293.75,0c0-9.8,0-14.69,0-24.49c98.3,36.29,195.44-36.29,293.75,0
		C412.83,139.97,412.83,144.87,412.83,154.67z"/>
</g>
<g>
	<path class="st2" d="M412.83,269.79c-98.41-40.75-195.36,40.74-293.75,0c0-21.06,0-42.13,0-63.19
		c98.39,40.74,195.34-40.75,293.75,0C412.83,227.66,412.83,248.73,412.83,269.79z"/>
	<path class="st2" d="M412.83,335.49c-98.41-40.75-195.36,40.74-293.75,0c0-21.06,0-42.13,0-63.19
		c98.39,40.74,195.34-40.75,293.75,0C412.83,293.36,412.83,314.42,412.83,335.49z"/>
	<path class="st2" d="M412.83,204.1c-98.41-40.75-195.36,40.74-293.75,0c0-21.06,0-42.13,0-63.19c98.39,40.74,195.34-40.75,293.75,0
		C412.83,161.97,412.83,183.03,412.83,204.1z"/>
</g>
</svg>
